<?xml version="1.0" encoding="UTF-8"?><svg xmlns="http://www.w3.org/2000/svg" xmlns:xlink="http://www.w3.org/1999/xlink" viewBox="0 0 37.62 163.08"><defs><style>.cls-1{fill:url(#radial-gradient-12);}.cls-1,.cls-2,.cls-3,.cls-4,.cls-5,.cls-6,.cls-7,.cls-8,.cls-9,.cls-10,.cls-11,.cls-12,.cls-13,.cls-14,.cls-15,.cls-16,.cls-17,.cls-18,.cls-19,.cls-20,.cls-21,.cls-22,.cls-23,.cls-24,.cls-25,.cls-26,.cls-27,.cls-28,.cls-29,.cls-30,.cls-31,.cls-32,.cls-33,.cls-34,.cls-35,.cls-36,.cls-37,.cls-38,.cls-39,.cls-40,.cls-41,.cls-42,.cls-43,.cls-44,.cls-45,.cls-46,.cls-47,.cls-48,.cls-49,.cls-50,.cls-51,.cls-52,.cls-53,.cls-54,.cls-55,.cls-56,.cls-57,.cls-58,.cls-59,.cls-60,.cls-61,.cls-62,.cls-63,.cls-64,.cls-65,.cls-66,.cls-67,.cls-68{fill-rule:evenodd;}.cls-2{fill:url(#radial-gradient-11);}.cls-3{fill:url(#radial-gradient-10);}.cls-4{fill:url(#linear-gradient-6);}.cls-4,.cls-5,.cls-6,.cls-7,.cls-15,.cls-16,.cls-17,.cls-26,.cls-36,.cls-37,.cls-38,.cls-39,.cls-40,.cls-41,.cls-42,.cls-43,.cls-44,.cls-45,.cls-46,.cls-47,.cls-48,.cls-50,.cls-51{mix-blend-mode:multiply;}.cls-69{fill:url(#linear-gradient);}.cls-5{fill:url(#linear-gradient-12);}.cls-6{fill:url(#linear-gradient-13);}.cls-6,.cls-7,.cls-16,.cls-36,.cls-37,.cls-38,.cls-39,.cls-40,.cls-41,.cls-42,.cls-50,.cls-51,.cls-52,.cls-66{opacity:.5;}.cls-7{fill:url(#linear-gradient-10);}.cls-8{fill:url(#New_Gradient_Swatch_96-4);}.cls-8,.cls-9,.cls-10,.cls-11,.cls-12,.cls-13,.cls-14,.cls-25,.cls-52,.cls-57,.cls-58,.cls-59,.cls-70,.cls-60,.cls-61,.cls-62,.cls-63,.cls-64,.cls-65,.cls-66,.cls-67,.cls-68{mix-blend-mode:screen;}.cls-9{fill:url(#New_Gradient_Swatch_96-6);}.cls-10{fill:url(#New_Gradient_Swatch_96-2);}.cls-11{fill:url(#New_Gradient_Swatch_96-8);}.cls-12{fill:url(#New_Gradient_Swatch_96-5);}.cls-13{fill:url(#New_Gradient_Swatch_96-7);}.cls-14{fill:url(#New_Gradient_Swatch_96-3);}.cls-15{fill:url(#New_Gradient_Swatch_17);}.cls-16{fill:url(#New_Gradient_Swatch_97);}.cls-17{fill:url(#New_Gradient_Swatch_62);}.cls-17,.cls-43,.cls-44,.cls-45,.cls-46,.cls-47{opacity:.2;}.cls-18{fill:url(#linear-gradient-25);}.cls-19{fill:url(#linear-gradient-14);}.cls-20{fill:url(#linear-gradient-15);}.cls-21{fill:url(#linear-gradient-23);}.cls-22{fill:url(#linear-gradient-22);}.cls-23{fill:url(#linear-gradient-26);}.cls-24{fill:url(#linear-gradient-24);}.cls-25{fill:#fff3ab;}.cls-26{fill:url(#radial-gradient-21);}.cls-27,.cls-48,.cls-60,.cls-61,.cls-62,.cls-63,.cls-64{opacity:.65;}.cls-27,.cls-49{fill:#e6332a;}.cls-28{fill:url(#radial-gradient-5);}.cls-29{fill:url(#radial-gradient-3);}.cls-30{fill:url(#radial-gradient-6);}.cls-31{fill:url(#radial-gradient-2);}.cls-32{fill:url(#radial-gradient-4);}.cls-33{fill:url(#radial-gradient-9);}.cls-34{fill:url(#radial-gradient-8);}.cls-35{fill:url(#radial-gradient-7);}.cls-36{fill:url(#radial-gradient-26);}.cls-37{fill:url(#radial-gradient-24);}.cls-38{fill:url(#radial-gradient-27);}.cls-39{fill:url(#radial-gradient-28);}.cls-40{fill:url(#radial-gradient-29);}.cls-41{fill:url(#radial-gradient-23);}.cls-42{fill:url(#radial-gradient-25);}.cls-71{fill:url(#linear-gradient-7);}.cls-43{fill:url(#radial-gradient-13);}.cls-44{fill:url(#radial-gradient-14);}.cls-45{fill:url(#radial-gradient-15);}.cls-46{fill:url(#radial-gradient-16);}.cls-47{fill:url(#radial-gradient-17);}.cls-48,.cls-50{fill:#a48a7b;}.cls-51{fill:#3e4c51;}.cls-52{fill:url(#radial-gradient-22);}.cls-72{fill:url(#linear-gradient-21);}.cls-73{fill:url(#linear-gradient-27);}.cls-74{isolation:isolate;}.cls-53{fill:url(#linear-gradient-8);}.cls-54{fill:url(#linear-gradient-9);}.cls-55{fill:url(#linear-gradient-3);}.cls-56{fill:url(#linear-gradient-4);}.cls-57{fill:url(#radial-gradient-19);}.cls-58{fill:url(#radial-gradient-18);}.cls-59{fill:url(#radial-gradient-20);}.cls-70{fill:url(#radial-gradient);}.cls-60{fill:url(#linear-gradient-18);}.cls-61{fill:url(#linear-gradient-19);}.cls-62{fill:url(#linear-gradient-17);}.cls-63{fill:url(#linear-gradient-16);}.cls-64{fill:url(#linear-gradient-20);}.cls-65{fill:url(#New_Gradient_Swatch_96);}.cls-66{fill:url(#linear-gradient-5);}.cls-67{fill:url(#linear-gradient-11);}.cls-68{fill:url(#linear-gradient-2);}</style><radialGradient id="radial-gradient" cx="18.81" cy="144.27" fx="18.81" fy="144.27" r="18.81" gradientTransform="translate(55.98 3.61) rotate(22.23)" gradientUnits="userSpaceOnUse"><stop offset="0" stop-color="#ff3c00"/><stop offset=".21" stop-color="#f23900" stop-opacity=".77"/><stop offset=".74" stop-color="#d63200" stop-opacity=".22"/><stop offset=".97" stop-color="#cb3000" stop-opacity="0"/></radialGradient><radialGradient id="radial-gradient-2" cx="15.64" cy="150.91" fx="15.64" fy="150.91" r="15.96" gradientUnits="userSpaceOnUse"><stop offset="0" stop-color="#ff8d24"/><stop offset="1" stop-color="#f53636"/></radialGradient><radialGradient id="radial-gradient-3" cx="13.37" cy="150.36" fx="13.37" fy="150.36" r="12" gradientUnits="userSpaceOnUse"><stop offset="0" stop-color="#ffd70f"/><stop offset="1" stop-color="#ff4242"/></radialGradient><radialGradient id="radial-gradient-4" cx="15.99" cy="151.45" fx="15.99" fy="151.45" r="7.86" gradientUnits="userSpaceOnUse"><stop offset="0" stop-color="#ff9f0f"/><stop offset="1" stop-color="#ff4242"/></radialGradient><radialGradient id="radial-gradient-5" cx="14.49" cy="142.01" fx="14.49" fy="142.01" r="11.04" xlink:href="#radial-gradient-4"/><radialGradient id="radial-gradient-6" cx="23.47" cy="154.27" fx="23.47" fy="154.27" r="14.11" gradientUnits="userSpaceOnUse"><stop offset="0" stop-color="#ff8d24"/><stop offset="1" stop-color="#f51d1d"/></radialGradient><radialGradient id="radial-gradient-7" cx="17.13" cy="155.39" fx="17.13" fy="155.39" r="22.42" xlink:href="#radial-gradient-2"/><radialGradient id="radial-gradient-8" cx="15.96" cy="144.54" fx="15.96" fy="144.54" r="12.25" xlink:href="#radial-gradient-6"/><radialGradient id="radial-gradient-9" cx="25.13" cy="153.97" fx="25.13" fy="153.97" r="33.9" gradientUnits="userSpaceOnUse"><stop offset="0" stop-color="#ff930f"/><stop offset="1" stop-color="#ff4242"/></radialGradient><radialGradient id="radial-gradient-10" cx="16.9" cy="148.66" fx="16.9" fy="148.66" r="27.79" xlink:href="#radial-gradient-4"/><radialGradient id="radial-gradient-11" cx="14.71" cy="147.47" fx="14.71" fy="147.47" r="21.21" xlink:href="#radial-gradient-3"/><radialGradient id="radial-gradient-12" cx="15.96" cy="146.15" fx="15.96" fy="146.15" r="17.46" xlink:href="#radial-gradient-4"/><radialGradient id="radial-gradient-13" cx="13.63" cy="141.95" fx="13.63" fy="141.95" r="5.35" gradientUnits="userSpaceOnUse"><stop offset="0" stop-color="#fff"/><stop offset="1" stop-color="#900"/></radialGradient><radialGradient id="New_Gradient_Swatch_62" cx="14.72" cy="143.52" fx="14.72" fy="143.52" r="6.91" gradientUnits="userSpaceOnUse"><stop offset=".33" stop-color="#fff"/><stop offset=".41" stop-color="#fdfafa"/><stop offset=".49" stop-color="#f7ecec"/><stop offset=".58" stop-color="#eed4d4"/><stop offset=".67" stop-color="#e1b4b4"/><stop offset=".76" stop-color="#d08a8a"/><stop offset=".86" stop-color="#bb5757"/><stop offset=".96" stop-color="#a41b1b"/><stop offset="1" stop-color="#900"/></radialGradient><radialGradient id="radial-gradient-14" cx="19.51" cy="145.94" fx="19.51" fy="145.94" r="8.79" xlink:href="#radial-gradient-13"/><radialGradient id="radial-gradient-15" cx="22.29" cy="143.17" fx="22.29" fy="143.17" r="7.81" xlink:href="#radial-gradient-13"/><radialGradient id="radial-gradient-16" cx="23.37" cy="144.2" fx="23.37" fy="144.2" r="8.14" xlink:href="#radial-gradient-13"/><radialGradient id="radial-gradient-17" cx="24.77" cy="144.27" fx="24.77" fy="144.27" r="10.32" xlink:href="#radial-gradient-13"/><radialGradient id="radial-gradient-18" cx="12.18" cy="143.14" fx="12.18" fy="143.14" r="5.03" gradientUnits="userSpaceOnUse"><stop offset="0" stop-color="#000"/><stop offset="1" stop-color="#ffa600"/></radialGradient><radialGradient id="radial-gradient-19" cx="16.23" cy="143.46" fx="16.23" fy="143.46" r="4.65" xlink:href="#radial-gradient-18"/><radialGradient id="radial-gradient-20" cx="18.43" cy="143.58" fx="18.43" fy="143.58" r="5.63" xlink:href="#radial-gradient-18"/><linearGradient id="linear-gradient" x1="13.39" y1="136.32" x2="24.24" y2="136.32" gradientUnits="userSpaceOnUse"><stop offset="0" stop-color="#875a31"/><stop offset=".33" stop-color="#ffc880"/><stop offset=".44" stop-color="#d79f5d"/><stop offset=".55" stop-color="#b2793d"/><stop offset=".67" stop-color="#955c23"/><stop offset=".78" stop-color="#804611"/><stop offset=".9" stop-color="#743a06"/><stop offset="1" stop-color="#703603"/></linearGradient><radialGradient id="radial-gradient-21" cx="18.11" cy="133.98" fx="18.11" fy="133.98" r="8.95" gradientUnits="userSpaceOnUse"><stop offset="0" stop-color="#fff"/><stop offset="1" stop-color="#634e42"/></radialGradient><linearGradient id="linear-gradient-2" x1="14" y1="137.1" x2="21.82" y2="137.1" gradientUnits="userSpaceOnUse"><stop offset="0" stop-color="#ffcd87"/><stop offset="1" stop-color="#000"/></linearGradient><linearGradient id="linear-gradient-3" x1="14.44" y1="90.27" x2="23.2" y2="90.27" gradientUnits="userSpaceOnUse"><stop offset="0" stop-color="#875a31"/><stop offset="1" stop-color="#452102"/></linearGradient><linearGradient id="linear-gradient-4" x1="14.66" y1="45.61" x2="22.98" y2="45.61" gradientUnits="userSpaceOnUse"><stop offset="0" stop-color="#282333"/><stop offset=".35" stop-color="#4d5d69"/><stop offset=".57" stop-color="#3d4452"/><stop offset=".84" stop-color="#2d2c3b"/><stop offset="1" stop-color="#282333"/></linearGradient><linearGradient id="New_Gradient_Swatch_17" x1="14.66" y1="45.47" x2="16.99" y2="45.47" gradientUnits="userSpaceOnUse"><stop offset="0" stop-color="#786f71"/><stop offset="1" stop-color="#fff"/></linearGradient><linearGradient id="linear-gradient-5" x1="16.73" y1="45.76" x2="18.82" y2="45.76" gradientUnits="userSpaceOnUse"><stop offset="0" stop-color="#737e8a"/><stop offset="1" stop-color="#000"/></linearGradient><linearGradient id="linear-gradient-6" x1="20.16" y1="45.53" x2="22.98" y2="45.53" gradientUnits="userSpaceOnUse"><stop offset="0" stop-color="#fff"/><stop offset="1" stop-color="#786f71"/></linearGradient><linearGradient id="linear-gradient-7" x1="14.07" y1="79.72" x2="23.26" y2="79.72" xlink:href="#linear-gradient"/><radialGradient id="New_Gradient_Swatch_97" cx="18.67" cy="79.72" fx="18.67" fy="79.72" r="3.94" gradientUnits="userSpaceOnUse"><stop offset="0" stop-color="#fff"/><stop offset="1" stop-color="#7c9494"/></radialGradient><linearGradient id="New_Gradient_Swatch_96" x1="15" y1="80.27" x2="21.2" y2="80.27" gradientUnits="userSpaceOnUse"><stop offset="0" stop-color="#e6a750"/><stop offset="1" stop-color="#000"/></linearGradient><linearGradient id="linear-gradient-8" x1="16.58" y1=".34" x2="21.05" y2=".34" gradientUnits="userSpaceOnUse"><stop offset="0" stop-color="#4d5d69"/><stop offset=".42" stop-color="#4e5362"/><stop offset="1" stop-color="#504a5c"/></linearGradient><linearGradient id="linear-gradient-9" x1="13.34" y1="111.2" x2="24.29" y2="111.2" xlink:href="#linear-gradient"/><linearGradient id="linear-gradient-10" x1="19.67" y1="88.56" x2="23.47" y2="88.56" gradientUnits="userSpaceOnUse"><stop offset="0" stop-color="#fff"/><stop offset="1" stop-color="#7c9494"/></linearGradient><linearGradient id="linear-gradient-11" x1="13.08" y1="112.39" x2="19.28" y2="112.39" xlink:href="#linear-gradient-2"/><linearGradient id="linear-gradient-12" x1="13.35" y1="113.06" x2="15.24" y2="113.06" gradientUnits="userSpaceOnUse"><stop offset="0" stop-color="#634e42"/><stop offset="1" stop-color="#fff"/></linearGradient><linearGradient id="linear-gradient-13" x1="18.12" y1="113.15" x2="24.29" y2="113.15" gradientUnits="userSpaceOnUse"><stop offset="0" stop-color="#fff"/><stop offset="1" stop-color="#634e42"/></linearGradient><linearGradient id="linear-gradient-14" x1="14.37" y1="93.23" x2="23.26" y2="93.23" gradientUnits="userSpaceOnUse"><stop offset="0" stop-color="#754417"/><stop offset=".33" stop-color="#cc8a33"/><stop offset=".36" stop-color="#c2822e"/><stop offset=".5" stop-color="#9c631e"/><stop offset=".63" stop-color="#7f4b12"/><stop offset=".76" stop-color="#693909"/><stop offset=".88" stop-color="#5d2f03"/><stop offset="1" stop-color="#592c02"/></linearGradient><linearGradient id="linear-gradient-15" x1="14.34" y1="93.62" x2="23.3" y2="93.62" gradientUnits="userSpaceOnUse"><stop offset="0" stop-color="#bf8045"/><stop offset=".33" stop-color="#ffdeb3"/><stop offset=".45" stop-color="#ddb385"/><stop offset=".56" stop-color="#c1905f"/><stop offset=".68" stop-color="#ab7542"/><stop offset=".79" stop-color="#9b612c"/><stop offset=".9" stop-color="#925520"/><stop offset="1" stop-color="#8f521c"/></linearGradient><radialGradient id="radial-gradient-22" cx="16.61" cy="144.49" fx="16.61" fy="144.49" r="4.6" gradientUnits="userSpaceOnUse"><stop offset="0" stop-color="#fcea10"/><stop offset="1" stop-color="#000"/></radialGradient><linearGradient id="linear-gradient-16" x1="18.81" y1="115.32" x2="19.43" y2="115.32" gradientUnits="userSpaceOnUse"><stop offset="0" stop-color="#000"/><stop offset="1" stop-color="#ffe54d"/></linearGradient><linearGradient id="linear-gradient-17" x1="16.56" y1="115.28" x2="17.32" y2="115.28" xlink:href="#linear-gradient-16"/><linearGradient id="linear-gradient-18" x1="14.32" y1="114.97" x2="15.29" y2="114.97" gradientUnits="userSpaceOnUse"><stop offset="0" stop-color="#000"/><stop offset="1" stop-color="#b8904a"/></linearGradient><linearGradient id="linear-gradient-19" x1="20.63" y1="115.2" x2="21.42" y2="115.2" xlink:href="#linear-gradient-18"/><linearGradient id="linear-gradient-20" x1="22.45" y1="114.92" x2="23.46" y2="114.92" xlink:href="#linear-gradient-18"/><linearGradient id="linear-gradient-21" x1="15.74" y1="30.64" x2="20.55" y2="30.64" xlink:href="#linear-gradient"/><linearGradient id="linear-gradient-22" x1="15.47" y1="38.14" x2="22.08" y2="38.14" xlink:href="#linear-gradient"/><linearGradient id="linear-gradient-23" x1="15.19" y1="46.45" x2="22.32" y2="46.45" xlink:href="#linear-gradient"/><linearGradient id="linear-gradient-24" x1="14.91" y1="54.77" x2="22.55" y2="54.77" xlink:href="#linear-gradient"/><linearGradient id="linear-gradient-25" x1="14.63" y1="63.09" x2="22.79" y2="63.09" xlink:href="#linear-gradient"/><linearGradient id="linear-gradient-26" x1="14.35" y1="71.41" x2="23.03" y2="71.41" xlink:href="#linear-gradient"/><linearGradient id="linear-gradient-27" x1="14.07" y1="79.72" x2="23.26" y2="79.72" xlink:href="#linear-gradient"/><radialGradient id="radial-gradient-23" cx="18.67" cy="79.72" fx="18.67" fy="79.72" r="3.94" gradientUnits="userSpaceOnUse"><stop offset="0" stop-color="#fff"/><stop offset="1" stop-color="#a48a7b"/></radialGradient><linearGradient id="New_Gradient_Swatch_96-2" x2="21.2" xlink:href="#New_Gradient_Swatch_96"/><radialGradient id="radial-gradient-24" cx="18.78" cy="38.14" fx="18.78" fy="38.14" r="2.85" xlink:href="#radial-gradient-23"/><radialGradient id="radial-gradient-25" cx="18.75" cy="46.45" fx="18.75" fy="46.45" r="3.07" xlink:href="#radial-gradient-23"/><radialGradient id="radial-gradient-26" cx="18.73" cy="54.77" fx="18.73" fy="54.77" r="3.29" xlink:href="#radial-gradient-23"/><radialGradient id="radial-gradient-27" cx="18.71" cy="63.09" fx="18.71" fy="63.09" r="3.51" xlink:href="#radial-gradient-23"/><radialGradient id="radial-gradient-28" cx="18.69" cy="71.41" fx="18.69" fy="71.41" r="3.72" xlink:href="#radial-gradient-23"/><linearGradient id="New_Gradient_Swatch_96-3" x1="15.18" y1="71.99" x2="21.08" y2="71.99" xlink:href="#New_Gradient_Swatch_96"/><linearGradient id="New_Gradient_Swatch_96-4" x1="15.35" y1="63.7" x2="20.95" y2="63.7" xlink:href="#New_Gradient_Swatch_96"/><linearGradient id="New_Gradient_Swatch_96-5" x1="15.53" y1="55.42" x2="20.82" y2="55.42" xlink:href="#New_Gradient_Swatch_96"/><linearGradient id="New_Gradient_Swatch_96-6" x1="15.71" y1="47.13" x2="20.69" y2="47.13" xlink:href="#New_Gradient_Swatch_96"/><linearGradient id="New_Gradient_Swatch_96-7" x1="15.88" y1="38.85" x2="20.57" y2="38.85" xlink:href="#New_Gradient_Swatch_96"/><linearGradient id="New_Gradient_Swatch_96-8" x1="16.06" y1="30.71" x2="20.11" y2="30.71" xlink:href="#New_Gradient_Swatch_96"/><radialGradient id="radial-gradient-29" cx="18.13" cy="30.66" fx="18.13" fy="30.66" r="1.93" xlink:href="#radial-gradient-23"/></defs><g class="cls-74"><g id="Layer_1"><circle class="cls-70" cx="18.81" cy="144.27" r="18.81" transform="translate(-53.18 17.84) rotate(-22.23)"/><g><g><path class="cls-31" d="M13.1,138.05c.35-.44,.69-.89,1.03-1.34h9.67c.16,.2,.31,.39,.47,.58,.22,.5,.44,1.01,.66,1.52,.08,.34,.16,.69,.24,1.03,.12,.82,.25,1.66,.38,2.5,.13,.86,.26,1.74,.4,2.63,0,.24,.01,.47,.03,.7-.17,.37-.33,.74-.5,1.11-.38,.44-.76,.88-1.15,1.32-.59,.52-1.2,1.04-1.8,1.56-.61,.53-1.23,1.06-1.85,1.6-.65,.18-1.3,.37-1.95,.55-.68-.39-1.36-.8-2.04-1.21-.75-.54-1.49-1.07-2.22-1.61-.3-.25-.6-.5-.89-.74-.66-.97-1.3-1.92-1.92-2.86,.01-.16,.02-.31,.04-.47,.25-1.21,.49-2.41,.73-3.57,.23-1.14,.46-2.25,.68-3.33h0Z"/><path class="cls-29" d="M15.56,147.56c-.3-.4-.6-.8-.89-1.19-.2-.1-.39-.2-.58-.3-.13-.02-.26-.03-.39-.04-.41,.21-.82,.42-1.23,.62,.23,.34,.46,.69,.7,1.04,.36,.19,.72,.39,1.08,.58,.44-.23,.87-.47,1.31-.71h0Z"/><path class="cls-32" d="M15.56,147.56c-.43,.24-.87,.47-1.31,.71,.07,.25,.14,.5,.21,.75,.73,.53,1.47,1.06,2.22,1.61,.52,.19,1.03,.39,1.55,.57,.07-.1,.15-.2,.23-.3-.19-.51-.38-1.01-.56-1.51-.28-.36-.56-.72-.84-1.07-.25-.13-.5-.25-.75-.38-.25-.12-.5-.25-.75-.38h0Z"/><path class="cls-28" d="M20.62,147.12c-1.18,.4-2.37,.79-3.56,1.19,.28,.36,.56,.71,.84,1.07,.19,.5,.37,1,.56,1.51,.5-.2,.99-.4,1.49-.6,.51-.48,1.02-.96,1.52-1.44,.65-.5,1.3-.99,1.95-1.47,.18-.32,.35-.63,.53-.95-.37,.16-.73,.32-1.1,.47-.3-.07-.61-.15-.92-.22-.44,.14-.87,.29-1.31,.44h0Z"/><path class="cls-27" d="M19.95,150.3c-.49,.2-.99,.4-1.49,.6-.08,.1-.15,.2-.23,.3,.16,.22,.32,.43,.48,.64,.41-.51,.82-1.02,1.23-1.54h0Z"/><path class="cls-49" d="M18.72,151.83c-.16-.2-.32-.42-.48-.64-.52-.19-1.03-.38-1.55-.57,.67,.4,1.35,.81,2.04,1.21h0Z"/><path class="cls-30" d="M19.95,150.3c-.41,.51-.82,1.03-1.23,1.54,.65-.17,1.31-.36,1.95-.55,.62-.54,1.24-1.08,1.85-1.6,.61-.52,1.21-1.05,1.8-1.56,.39-.44,.77-.89,1.15-1.32,.17-.37,.33-.75,.5-1.11-.47,.08-.94,.17-1.41,.25-.21,.17-.41,.34-.62,.51-.18,.32-.35,.63-.53,.95-.64,.48-1.29,.97-1.95,1.47-.5,.48-1.01,.95-1.52,1.44h0Z"/><path class="cls-35" d="M21.93,146.69c.31,.08,.61,.15,.92,.22,.37-.16,.74-.31,1.1-.47,.21-.17,.41-.34,.62-.51-.1-.83-.2-1.65-.3-2.45-.1-.8-.2-1.59-.3-2.36-.09-.76-.19-1.51-.28-2.24-.09-.73-.18-1.46-.27-2.18h-2.15c.05,.78,.1,1.55,.15,2.34,.05,.79,.11,1.6,.16,2.41,.06,.83,.11,1.69,.17,2.56,.06,.87,.12,1.76,.18,2.66h0Z"/><path class="cls-34" d="M23.42,136.71c.09,.72,.18,1.45,.27,2.18,.09,.73,.18,1.48,.28,2.24,.1,.77,.2,1.56,.3,2.36,.1,.8,.2,1.62,.3,2.45,.47-.08,.94-.16,1.41-.25-.02-.23-.02-.47-.03-.7-.14-.89-.27-1.77-.4-2.63-.13-.85-.25-1.68-.38-2.5-.08-.35-.16-.69-.24-1.03-.22-.51-.44-1.01-.66-1.52-.16-.19-.31-.38-.47-.58h-.38Z"/><path class="cls-33" d="M21.93,146.69c-.06-.9-.12-1.79-.18-2.66-.06-.87-.11-1.72-.17-2.56-.05-.82-.11-1.62-.16-2.41-.05-.79-.1-1.57-.15-2.34h-.9c.02,.81,.04,1.62,.06,2.44,.02,.82,.04,1.66,.06,2.51,.02,.87,.04,1.77,.06,2.68,.02,.91,.04,1.84,.07,2.79,.44-.15,.87-.29,1.31-.44h0Z"/><path class="cls-3" d="M20.62,147.12c-.03-.95-.05-1.88-.07-2.79-.02-.91-.04-1.8-.06-2.68-.02-.85-.04-1.69-.06-2.51-.02-.82-.04-1.63-.06-2.44h-3.18c-.07,.86-.14,1.73-.2,2.61-.07,.88-.14,1.79-.21,2.71-.07,.94-.15,1.91-.23,2.89-.08,.98-.16,1.99-.24,3.02,.25,.13,.5,.26,.75,.38,1.19-.4,2.38-.79,3.56-1.19h0Z"/><path class="cls-2" d="M16.3,147.94c.08-1.02,.16-2.03,.24-3.02,.08-.98,.15-1.95,.23-2.89,.07-.92,.14-1.82,.21-2.71,.07-.88,.14-1.75,.2-2.61h-2.31c-.09,.73-.18,1.45-.28,2.19-.09,.74-.19,1.49-.29,2.26-.1,.78-.2,1.58-.3,2.39-.1,.81-.21,1.64-.31,2.48,.13,.01,.26,.03,.39,.04,.2,.1,.39,.2,.58,.3,.29,.39,.59,.79,.89,1.19,.25,.12,.5,.25,.75,.38h0Z"/><path class="cls-49" d="M14.25,148.27c-.36-.2-.72-.39-1.08-.58,.13,.2,.26,.39,.4,.59,.29,.25,.59,.5,.89,.74-.07-.25-.14-.5-.21-.75h0Z"/><path class="cls-1" d="M13.7,146.03c-.41,.21-.81,.42-1.22,.62-.28-.41-.56-.83-.82-1.23,.01-.16,.02-.31,.04-.47,.25-1.21,.49-2.41,.73-3.57,.23-1.14,.46-2.25,.68-3.33,.35-.44,.69-.89,1.03-1.34h.74c-.09,.73-.18,1.45-.28,2.19-.09,.74-.19,1.49-.29,2.26-.1,.78-.2,1.58-.3,2.39-.1,.81-.21,1.64-.31,2.48h0Z"/><path class="cls-43" d="M12.88,139.1c.31-.33,.6-.28,.8-.19,.65,.26,.71,1.08,.72,1.54,.08-.64,.16-1.27,.24-1.9,.08-.61,.16-1.23,.23-1.83h-.74c-.34,.44-.69,.88-1.03,1.33-.07,.35-.14,.7-.22,1.05h0Z"/><path class="cls-17" d="M14.88,136.72c-.08,.6-.15,1.22-.23,1.83-.08,.62-.16,1.25-.24,1.9,.16-.46,.29-.92,.49-1.36,.69-1.49,1.59-.96,1.81,.35,.1,.6,.08,1.21,.12,1.83,.06-.79,.12-1.56,.18-2.32,.06-.75,.12-1.49,.17-2.22h-2.31Z"/><path class="cls-44" d="M17.18,136.72c-.06,.73-.12,1.47-.17,2.22-.06,.76-.12,1.53-.18,2.32,.29-.97,.46-2.75,2.2-2.81,.5-.02,.96,.24,1.4,.86-.02-.88-.04-1.74-.06-2.6h-3.18Z"/><path class="cls-45" d="M20.36,136.72c.02,.85,.04,1.72,.06,2.6,.03-.15,.06-.35,.12-.49,.22-.53,.6-.29,.73,.16,.06,.2,.17,.59,.2,.84-.07-1.06-.14-2.09-.2-3.11h-.9Z"/><path class="cls-46" d="M21.26,136.72c.07,1.02,.14,2.05,.2,3.11,0,.02,0,.04,0,.06,.06-.32,.1-.86,.18-.95,.5-.61,1.46,.06,1.84,.62,.19,.28,.32,.62,.39,.91-.08-.64-.16-1.28-.24-1.91-.08-.62-.15-1.23-.23-1.84h-2.15Z"/><path class="cls-47" d="M23.42,136.72c.08,.61,.15,1.22,.23,1.84,.08,.63,.16,1.27,.24,1.91,.02-.21,.03-.55,.08-.61,.29-.44,.9,0,1.11,.41,.21,.43,.29,.95,.38,1.44-.09-.63-.19-1.26-.28-1.87-.08-.35-.16-.69-.24-1.03-.22-.51-.44-1.01-.66-1.52-.16-.19-.31-.38-.47-.57h-.38Z"/><path class="cls-58" d="M13.66,144.04c-.16,.4-1.4,.98-1.57,.31-.07-.29-.1-.52-.11-.82-.1,.47-.19,.94-.29,1.42-.02,.16-.03,.31-.04,.47,.27,.41,.54,.82,.82,1.23,.41-.21,.81-.41,1.22-.62,.15-1.16,.29-2.29,.43-3.4-.14,.47-.28,.94-.47,1.41h0Z"/><path class="cls-57" d="M14.5,145.22c-.42-.75-.35-1.8-.37-2.6-.14,1.11-.29,2.25-.43,3.4,.13,.01,.26,.03,.39,.04,.2,.1,.39,.2,.58,.3,.29,.39,.59,.79,.89,1.19,.25,.12,.5,.25,.75,.38,.09-1.11,.17-2.2,.25-3.26,.08-1.04,.16-2.06,.24-3.07-.07,.47-.11,1.22-.21,1.94-.1,.74-.26,1.47-.54,1.9-.42,.63-1.25,.31-1.55-.23h0Z"/><path class="cls-59" d="M17.66,147.38c-.28-.04-.66-.22-.77-.44-.26-.53-.32-1.3-.36-1.91-.07,.95-.15,1.92-.23,2.9,.25,.13,.5,.26,.75,.38,1.19-.4,2.38-.79,3.56-1.19,0-.38-.02-.76-.03-1.13-.02,.25-.05,.51-.11,.75-.16,.69-2.08,.75-2.82,.64h0Z"/><path class="cls-25" d="M12.72,146.52c.27-.21,.53-.41,.79-.61,.15-.9,.3-1.8,.44-2.67,.14-.86,.28-1.7,.42-2.54-.08,.83-.16,1.67-.24,2.52-.08,.87-.17,1.75-.25,2.65,.08,.05,.16,.09,.24,.14,.18,.12,.37,.23,.55,.35-.19-.09-.39-.17-.58-.26-.12-.02-.25-.03-.37-.05-.33,.15-.67,.31-1,.46h0Z"/><path class="cls-25" d="M15.64,147.6c.16,.04,.33,.07,.49,.1,.03-.04,.06-.07,.09-.11,.1-1.05,.2-2.08,.3-3.08,.1-.99,.19-1.96,.28-2.91-.05,.98-.1,1.97-.15,2.99-.05,1.03-.11,2.1-.16,3.17,.02,.06,.04,.11,.06,.16,.17,.13,.34,.26,.51,.38-.47-.24-.95-.48-1.42-.72h0Z"/></g><path class="cls-69" d="M18.82,134.56c1.25,0,2.39,.08,3.22,.21,1.36,.21,2.2,.74,2.2,1.55s-.84,1.34-2.2,1.55c-.84,.13-1.98,.21-3.22,.21s-2.39-.08-3.22-.21c-1.36-.21-2.2-.74-2.2-1.55s.84-1.34,2.2-1.55c.84-.13,1.98-.21,3.22-.21h0Z"/><path class="cls-26" d="M20.82,135.55c1.1,.2,1.78,.68,1.78,1.38,0,.39-.21,.71-.59,.94,.01,0,.02,0,.04,0,1.36-.21,2.2-.74,2.2-1.55s-.84-1.34-2.2-1.55c-.84-.13-1.98-.21-3.22-.21s-2.39,.08-3.22,.21c-1.36,.21-2.2,.74-2.2,1.55,0,.41,.21,.74,.59,1-.1-.16-.16-.34-.16-.54,0-.7,.68-1.16,1.78-1.32,.68-.1,1.6-.15,2.61-.13,1.01,.02,1.93,.1,2.61,.23h0Z"/><path class="cls-51" d="M22.04,134.76c-.84-.13-1.98-.21-3.22-.21s-2.39,.08-3.22,.21c-.93,.14-1.61,.44-1.96,.86,.34,.43,1.03,.72,1.96,.86,.84,.13,1.98,.21,3.22,.21s2.39-.08,3.22-.21c.93-.14,1.61-.44,1.96-.86-.34-.43-1.03-.72-1.96-.86h0Z"/><path class="cls-68" d="M14.17,136.43c-.11,.05-.19,.2-.16,.32,.31,1.45,6.86,1.3,7.82,.07-2.02,.21-4.92,.36-6.87-.24-.29-.09-.67-.21-.79-.15h0Z"/><path class="cls-55" d="M18.82,89.6c2.42,0,4.38,.3,4.38,.67s-1.96,.67-4.38,.67-4.38-.3-4.38-.67,1.96-.67,4.38-.67h0Z"/><path class="cls-56" d="M16.58,.34h4.46l1.93,89.89c0,.35-1.86,.64-4.16,.64s-4.16-.29-4.16-.64L16.58,.34h0Z"/><path class="cls-15" d="M15.41,90.6c.53-31.41,1.05-58.65,1.58-90.06-.25-.06-.4-.12-.4-.2l-1.93,89.89c0,.14,.28,.26,.75,.37h0Z"/><path class="cls-66" d="M17.7,.64c-.32,31.44-.64,58.71-.96,90.15,.61,.05,1.32,.09,2.08,.09h0c0-31.46,0-58.73,0-90.19-.41,0-.79-.02-1.12-.05h0Z"/><path class="cls-4" d="M20.16,.62c.39,31.44,.78,58.69,1.16,90.13,1.01-.12,1.66-.3,1.66-.51L21.05,.34c0-.11-.35,.21-.89,.27h0Z"/><path class="cls-71" d="M22.69,76.56c.47,.18,1.15,1.54-.31,2.69-.84,.67-1.61,1.35-3.18,2.17-1.35,.7-2.65,1.16-3.51,1.39-2.04,.45-1.94-1.67-.83-1.96,.1,1.06,2.75-.21,3.66-.71,1.32-.72,4.08-2.35,4.17-3.59h0Z"/><path class="cls-16" d="M22.18,77.55c.29-.17,.63-.06,.46,.48-.18,.6-.73,1.24-1.45,1.85-.68,.57-1.52,1.11-2.37,1.55-.69,.36-1.39,.65-2,.84-.49,.15-.93,.23-1.28,.23-.04,0-.07,0-.1,0-.24-.02-.46-.14-.62-.33-.27-.32-.33-.83,.04-1.31-.92,.23-1.15,1.72-.05,1.98,.2,.05,.44,.05,.73,0,.05,0,.1-.02,.15-.03,.32-.09,.71-.2,1.13-.35,.6-.21,1.29-.49,2-.84,.13-.06,.25-.13,.38-.19,.86-.45,1.47-.85,1.99-1.24,.44-.32,.8-.63,1.19-.93,.14-.11,.26-.23,.37-.34,.96-1.07,.37-2.19-.06-2.35-.02,.31-.21,.65-.51,.99h0Z"/><path class="cls-65" d="M15,81.38c.13,.07,.3,.07,.49,.07,1.46-.04,4.7-1.87,5.71-2.82-.71,1.21-3.87,3.35-5.43,3.29-.41-.02-.7-.2-.77-.54h0Z"/><path class="cls-53" d="M18.82,0c1.23,0,2.23,.15,2.23,.34s-1,.34-2.23,.34-2.23-.15-2.23-.34,1-.34,2.23-.34h0Z"/><path class="cls-54" d="M24.29,135.37c0,.46-2.45,.84-5.47,.84s-5.47-.38-5.47-.84c.27-12.89,.62-28.98,1-41.94l.11-.3-.09-.39c.02-.84,.05-1.66,.07-2.47,.02,.14,.33,.27,.82,.37,2.1,.45,7.53-2.81,7.64-4.45,.31,.12,.7,.75,.53,1.49-.28,1.17-2.69,2.72-3.75,3.23,1.99-.06,3.49-.33,3.53-.65,.02,.81,.05,1.63,.08,2.47l-.09,.39,.11,.3c.38,12.97,.73,29.06,.99,41.94h0Z"/><path class="cls-7" d="M22.39,87.19c.29-.17,.61-.06,.45,.48-.18,.62-.83,1.39-1.53,2.03,0,0,0,0,0,0-.53,.49-1.09,.91-1.5,1.14-.01,0-.02,.01-.03,.02-.03,.02-.07,.04-.1,.05,.03-.02,.07-.03,.11-.05,.01,0,.02-.01,.04-.02,.4-.21,.95-.53,1.5-.91,.09-.06,.18-.13,.27-.19,.52-.38,1.01-.8,1.36-1.22,.24-.29,.41-.57,.48-.83,.18-.74-.21-1.37-.53-1.49,0,0,0,0,0,0-.02,.29-.2,.63-.51,.99h0Z"/><path class="cls-67" d="M17.95,92.03c0-.42,.12-.78,.32-1.1,.31-.48,.8-.89,1.35-1.33,.39-.31,.8-.64,1.19-1.03-.52,.37-1.09,.72-1.68,1.02-1.03,.54-2.09,.94-2.94,1.07,0,.05,0,.1,0,.14-.06,15.13-.35,30.12-.69,45.24,.64,.07,1.39,.13,2.2,.15,.11-14.7,.17-29.47,.24-44.17h0Z"/><path class="cls-5" d="M14.32,135.84c.25-14.93,.67-30.26,.93-45.2-.49-.11-.78-.23-.81-.37-.02,.81-.05,1.63-.07,2.47l.09,.39-.11,.3c-.38,12.97-.73,29.05-1,41.94,0,.18,.36,.34,.97,.48h0Z"/><path class="cls-6" d="M21.41,91.94c.22,14.13,.53,29.58,.69,43.43,0,.19,0,.46,0,.67,1.32-.15,2.18-.4,2.18-.67-.27-12.89-.61-28.98-.99-41.94l-.11-.3,.09-.39c-.02-.84-.05-1.66-.08-2.47-.04,.32-1.54,.59-3.53,.65-.09,.05-.18,.1-.27,.15-.43,.23-.86,.43-1.28,.6,.57-.07,2.82-.76,3.14-.49,.19,.16,.14,.52,.15,.77h0Z"/><path class="cls-19" d="M18.82,93.43c-2.35,0-4.28-.28-4.45-.63l.08,.33c.43,.31,2.22,.54,4.37,.54s3.95-.23,4.37-.54l.08-.33c-.17,.35-2.09,.63-4.45,.63h0Z"/><path class="cls-20" d="M18.82,93.66c-2.14,0-3.93-.23-4.37-.54h0s-.11,.3-.11,.3c0,.38,2,.69,4.48,.69s4.48-.31,4.48-.69l-.11-.3h0c-.43,.3-2.22,.53-4.37,.53h0Z"/><path class="cls-52" d="M21.2,144.49c0,2.54-2.06,4.6-4.6,4.6s-4.6-2.06-4.6-4.6,2.06-4.6,4.6-4.6,4.6,2.06,4.6,4.6Z"/><g><path class="cls-48" d="M18.82,135.85c-.2-2.25-.37-5.26-.48-8.77-.05-1.75-.09-3.63-.12-5.6-.02-1.97-.03-4.03-.02-6.15,0-2.12,.03-4.18,.06-6.14,.03-1.97,.08-3.84,.13-5.59,.11-3.51,.25-6.52,.42-8.82,0,3.44,0,6.86,0,10.28s0,6.85,0,10.26c0,3.42,0,6.85,0,10.27,0,3.42,0,6.83,0,10.25h0Z"/><path class="cls-63" d="M18.82,135.85c.2-2.27,.36-5.29,.47-8.8,.05-1.75,.09-3.63,.11-5.59,.02-1.97,.03-4.03,.03-6.15,0-2.12-.03-4.17-.06-6.12-.03-1.96-.08-3.83-.13-5.58-.11-3.5-.25-6.51-.42-8.81,0,3.44,0,6.86,0,10.28s0,6.85,0,10.26c0,3.42,0,6.85,0,10.27,0,3.42,0,6.83,0,10.25h0Z"/><path class="cls-50" d="M16.56,135.83c-.15-2.28-.26-5.3-.31-8.82-.03-1.76-.04-3.64-.04-5.6,0-1.97,.02-4.04,.04-6.16,.03-2.11,.07-4.17,.12-6.14,.05-1.96,.11-3.84,.17-5.59,.13-3.5,.28-6.51,.45-8.8-.04,3.43-.07,6.87-.11,10.29-.04,3.42-.07,6.85-.11,10.27-.04,3.43-.07,6.86-.11,10.28-.04,3.42-.07,6.84-.11,10.26h0Z"/><path class="cls-62" d="M16.56,135.83c.2-2.26,.37-5.26,.5-8.77,.06-1.75,.12-3.63,.16-5.59,.04-1.97,.07-4.03,.09-6.16,.02-2.11,.02-4.18,.01-6.14,0-1.97-.03-3.85-.05-5.6-.05-3.51-.15-6.54-.27-8.85-.04,3.43-.07,6.87-.11,10.29-.04,3.42-.07,6.85-.11,10.27-.04,3.43-.07,6.86-.11,10.28-.04,3.42-.07,6.84-.11,10.26h0Z"/><path class="cls-48" d="M14.32,135.46c-.09-2.3-.15-5.36-.15-8.89,0-1.77,.01-3.65,.04-5.62,.03-1.97,.06-4.03,.11-6.14,.05-2.11,.11-4.16,.17-6.11,.06-1.94,.13-3.8,.21-5.53,.15-3.46,.31-6.43,.48-8.69-.07,3.42-.14,6.85-.21,10.26-.07,3.42-.14,6.83-.21,10.24-.07,3.42-.14,6.84-.21,10.25-.07,3.42-.14,6.83-.21,10.23h0Z"/><path class="cls-60" d="M14.32,135.46c.19-2.21,.37-5.19,.51-8.67,.07-1.74,.14-3.61,.2-5.57,.06-1.96,.11-4.02,.15-6.14,.04-2.12,.07-4.17,.08-6.14,.02-1.97,.03-3.85,.03-5.6,0-3.51-.04-6.55-.11-8.87-.07,3.42-.14,6.85-.21,10.26-.07,3.42-.14,6.83-.21,10.24-.07,3.42-.14,6.84-.21,10.25-.07,3.42-.14,6.83-.21,10.23h0Z"/><path class="cls-48" d="M21.07,135.68c-.2-2.24-.37-5.24-.5-8.72-.06-1.74-.12-3.61-.16-5.57-.04-1.96-.07-4.01-.09-6.13-.02-2.11-.02-4.16-.01-6.12,0-1.96,.03-3.84,.05-5.59,.05-3.5,.14-6.52,.26-8.82,.04,3.43,.07,6.85,.11,10.26,.04,3.41,.08,6.83,.11,10.23,.04,3.41,.07,6.83,.11,10.24,.04,3.41,.07,6.82,.11,10.22h0Z"/><path class="cls-61" d="M21.07,135.68c.15-2.28,.25-5.3,.31-8.8,.03-1.75,.04-3.62,.04-5.58,0-1.96-.02-4.01-.04-6.13-.03-2.11-.07-4.15-.12-6.1-.05-1.95-.11-3.82-.17-5.57-.13-3.48-.28-6.49-.45-8.77,.04,3.43,.07,6.85,.11,10.26,.04,3.41,.08,6.83,.11,10.23,.04,3.41,.07,6.83,.11,10.24,.04,3.41,.07,6.82,.11,10.22h0Z"/><path class="cls-48" d="M23.31,135.36c-.19-2.23-.37-5.21-.52-8.68-.07-1.73-.14-3.6-.2-5.55-.06-1.95-.11-4.01-.15-6.12-.04-2.11-.07-4.15-.09-6.11-.02-1.96-.03-3.83-.03-5.58,0-3.5,.04-6.52,.11-8.85,.07,3.42,.15,6.84,.22,10.24,.07,3.41,.14,6.81,.22,10.21,.07,3.41,.15,6.81,.22,10.22,.07,3.4,.14,6.81,.22,10.2h0Z"/><path class="cls-64" d="M23.31,135.36c.09-2.29,.14-5.31,.14-8.82,0-1.75-.01-3.63-.04-5.6-.03-1.96-.06-4.03-.11-6.14-.05-2.11-.11-4.15-.17-6.1s-.14-3.8-.21-5.53c-.15-3.45-.31-6.43-.48-8.69,.07,3.42,.15,6.84,.22,10.24,.07,3.41,.14,6.81,.22,10.21,.07,3.41,.15,6.81,.22,10.22,.07,3.4,.14,6.81,.22,10.2h0Z"/></g></g><g><path class="cls-72" d="M16.52,31.93c-.86,.2-.91-.45-.59-.66,.07,.12,.17,.2,.39,.2,.45,0,1.52-.41,2.58-1.02,.59-.34,1.18-.74,1.66-1.15-.93,1.49-2.96,2.37-4.04,2.62h0Z"/><path class="cls-22" d="M21.81,35.82c.27,.19,.43,.71,.02,1.23-.49,.78-1.53,1.59-2.75,2.26-.98,.54-1.98,.93-2.7,1.1-1.06,.24-1.08-.65-.63-.87,.19,.71,3.24-.91,3.51-1.07,1.3-.77,2.57-1.82,2.56-2.65h0Z"/><path class="cls-21" d="M21.99,43.97c.31,.19,.58,.88-.05,1.52-.56,.76-1.54,1.54-2.84,2.24-1.05,.57-2.12,.98-2.87,1.16-1.25,.28-1.25-.86-.67-1.09,.16,.84,3.74-1.12,4.05-1.31,1.21-.75,2.37-1.73,2.37-2.52h0Z"/><path class="cls-24" d="M22.16,52.12c.35,.19,.72,1.04-.11,1.81-.63,.74-1.56,1.49-2.92,2.22-1.13,.6-2.25,1.02-3.03,1.22-1.45,.32-1.42-1.06-.71-1.31,.15,1,4.18-1.29,4.59-1.56,1.13-.72,2.17-1.64,2.18-2.39h0Z"/><path class="cls-18" d="M22.34,60.27c.39,.18,.86,1.21-.18,2.11-.7,.71-1.58,1.45-3.01,2.21-1.2,.64-2.38,1.07-3.19,1.27-1.65,.36-1.6-1.26-.75-1.52,.15,1.2,4.61-1.45,5.13-1.81,1.04-.7,1.97-1.55,1.99-2.25h0Z"/><path class="cls-23" d="M22.51,68.42c.43,.18,1.01,1.38-.24,2.4-.77,.69-1.59,1.4-3.09,2.19-1.27,.67-2.52,1.11-3.35,1.33-1.84,.41-1.77-1.47-.79-1.74,.15,1.41,5.04-1.6,5.67-2.06,.95-.68,1.77-1.46,1.81-2.12h0Z"/><path class="cls-73" d="M22.69,76.56c.47,.18,1.15,1.54-.31,2.69-.84,.67-1.61,1.35-3.18,2.17-1.35,.7-2.65,1.16-3.51,1.39-2.04,.45-1.94-1.67-.83-1.96,.1,1.06,2.75-.21,3.66-.71,1.32-.72,4.08-2.35,4.17-3.59h0Z"/><path class="cls-41" d="M22.18,77.55c.29-.17,.63-.06,.46,.48-.18,.6-.73,1.24-1.45,1.85-.68,.57-1.52,1.11-2.37,1.55-.69,.36-1.39,.65-2,.84-.49,.15-.93,.23-1.28,.23-.04,0-.07,0-.1,0-.24-.02-.46-.14-.62-.33-.27-.32-.33-.83,.04-1.31-.92,.23-1.15,1.72-.05,1.98,.2,.05,.44,.05,.73,0,.05,0,.1-.02,.15-.03,.32-.09,.71-.2,1.13-.35,.6-.21,1.29-.49,2-.84,.13-.06,.25-.13,.38-.19,.86-.45,1.47-.85,1.99-1.24,.44-.32,.8-.63,1.19-.93,.14-.11,.26-.23,.37-.34,.96-1.07,.37-2.19-.06-2.35-.02,.31-.21,.65-.51,.99h0Z"/><path class="cls-10" d="M15,81.38c.13,.07,.3,.07,.49,.07,1.46-.04,4.7-1.87,5.71-2.82-.71,1.21-3.87,3.35-5.43,3.29-.41-.02-.7-.2-.77-.54h0Z"/><path class="cls-37" d="M21.81,35.82c0,.52-.49,1.13-1.18,1.7,.55-.17,.4,.27,.05,.59-.16,.14-.32,.27-.49,.4-.96,.69-2.55,1.61-3.73,1.69-.68,.05-.8-.33-.72-.66-.45,.22-.43,1.12,.63,.87,.72-.17,1.73-.57,2.7-1.1,1.22-.67,2.26-1.48,2.75-2.26,.41-.52,.26-1.04-.02-1.23h0Z"/><path class="cls-42" d="M21.94,45.49c.62-.64,.36-1.33,.05-1.52,0,.53-.53,1.16-1.25,1.73,.42-.18,.62,.19,.33,.51-.42,.47-1.52,1.16-2.07,1.44-.56,.28-1.12,.54-1.71,.76-.29,.11-.59,.19-.89,.22-.76,.07-.98-.36-.84-.83-.58,.23-.58,1.37,.67,1.09,.75-.18,1.81-.59,2.87-1.16,1.29-.7,2.27-1.48,2.84-2.24h0Z"/><path class="cls-36" d="M22.16,52.12c0,.55-.57,1.18-1.31,1.77,.73,.06,.34,.8-.1,1.13-.38,.29-.78,.54-1.19,.77-1,.56-2.36,1.34-3.54,1.32-.8-.02-.81-.61-.63-1.04-.71,.25-.74,1.63,.71,1.31,.78-.2,1.9-.61,3.03-1.22,1.36-.73,2.29-1.49,2.92-2.22,.83-.77,.47-1.63,.11-1.81h0Z"/><path class="cls-38" d="M22.34,60.27c-.02,.55-.58,1.18-1.32,1.77,.84-.13,.68,.65,.08,1.14-1.23,1.03-3.07,1.95-4.67,2.22-1.11,.19-1.62-.22-1.22-1.06-.85,.26-.9,1.89,.75,1.52,.81-.21,1.99-.64,3.19-1.27,1.43-.76,2.31-1.49,3.01-2.21,1.04-.9,.57-1.92,.18-2.11h0Z"/><path class="cls-39" d="M22.27,70.82c1.25-1.02,.67-2.22,.24-2.4-.03,.58-.66,1.25-1.45,1.86,.42-.16,.6-.05,.64,.15,.13,.61-.65,1.19-1.07,1.52-1.19,.95-2.68,1.68-4.11,2.05-1.25,.32-1.87-.43-1.49-1.39-.98,.27-1.05,2.14,.79,1.74,.84-.22,2.08-.66,3.35-1.33,1.5-.79,2.32-1.5,3.09-2.19h0Z"/><path class="cls-14" d="M15.18,73.06c.12,.07,.28,.07,.47,.06,1.42-.06,4.44-1.76,5.43-2.69-.69,1.16-3.72,3.14-5.15,3.11-.4,0-.67-.17-.74-.48h0Z"/><path class="cls-8" d="M15.35,64.75c.12,.06,.27,.07,.45,.06,1.37-.08,4.18-1.65,5.15-2.57-.66,1.1-3.56,2.92-4.88,2.93-.38,0-.64-.13-.72-.42h0Z"/><path class="cls-12" d="M15.53,56.43c.12,.06,.25,.07,.43,.06,1.32-.1,3.92-1.54,4.86-2.44-.63,1.05-3.4,2.71-4.6,2.74-.37,.02-.62-.1-.69-.36h0Z"/><path class="cls-9" d="M15.71,48.11c.11,.06,.24,.07,.41,.05,1.27-.12,3.66-1.43,4.58-2.31-.61,1-3.25,2.49-4.33,2.56-.36,.03-.59-.06-.66-.3h0Z"/><path class="cls-13" d="M15.88,39.79c.11,.06,.23,.06,.39,.05,1.22-.13,3.4-1.32,4.29-2.18-.58,.95-3.09,2.28-4.05,2.38-.34,.04-.56-.03-.63-.24h0Z"/><path class="cls-11" d="M16.06,31.48c.1,.06,.21,.06,.37,.04,1.18-.15,2.67-1.02,3.68-1.78-.69,.8-2.6,1.79-3.45,1.92-.33,.05-.53,0-.6-.18h0Z"/><path class="cls-40" d="M16.44,31.78c-.28,0-.49-.1-.53-.33,0-.05,0-.11,0-.18-.21,.14-.26,.47-.01,.62,.11,.07,.29,.1,.53,.05,.02,0,.05,0,.07-.02,.24-.06,.54-.15,.85-.27,.45-.17,.96-.41,1.45-.71,.66-.41,1.29-.94,1.71-1.6,0,0,0,0,0,0-.5,.63-1.06,1.14-1.71,1.54-.44,.27-.92,.5-1.45,.68-.16,.05-.32,.1-.49,.15-.15,.04-.3,.06-.43,.06h0Z"/></g></g></g></svg>